<?xml version="1.0" standalone="no"?>
<!DOCTYPE svg PUBLIC "-//W3C//DTD SVG 20010904//EN"
 "http://www.w3.org/TR/2001/REC-SVG-20010904/DTD/svg10.dtd">
<svg version="1.0" xmlns="http://www.w3.org/2000/svg"
 width="512.000000pt" height="512.000000pt" viewBox="0 0 512.000000 512.000000"
 preserveAspectRatio="xMidYMid meet">
<metadata>
Created by potrace 1.11, written by Peter Selinger 2001-2013
</metadata>
<g transform="translate(0.000000,512.000000) scale(0.100000,-0.100000)"
fill="#000000" stroke="none">
<path d="M1450 4319 c-116 -12 -260 -51 -369 -97 -151 -65 -341 -194 -341
-231 0 -27 41 -82 76 -103 l32 -19 78 57 c101 72 204 124 324 162 137 44 237
56 417 50 l154 -6 16 25 c19 28 28 112 15 132 -20 29 -254 46 -402 30z"/>
<path d="M3352 4299 c-86 -11 -96 -20 -89 -87 8 -72 30 -106 65 -98 15 4 81 9
148 13 245 12 477 -54 691 -198 39 -27 74 -53 78 -59 13 -22 50 -8 92 34 57
58 55 77 -19 136 -249 200 -631 303 -966 259z"/>
<path d="M1166 3744 c-809 -160 -1126 -1139 -564 -1739 359 -384 965 -435
1389 -115 312 234 469 650 391 1032 -21 102 -29 93 97 108 50 6 112 6 162 0
126 -15 118 -6 97 -108 -34 -166 -20 -375 36 -538 206 -605 904 -882 1473
-585 606 317 742 1133 271 1636 -389 416 -1054 436 -1472 45 -49 -47 -124
-134 -152 -179 -2 -1 -31 6 -66 18 -150 49 -341 53 -488 11 -121 -35 -111 -36
-155 26 -135 190 -382 340 -638 389 -97 18 -287 18 -381 -1z m403 -254 c86
-24 195 -77 261 -125 49 -36 153 -142 187 -191 40 -56 92 -170 115 -250 32
-112 32 -296 0 -408 -43 -150 -113 -266 -224 -371 -77 -74 -104 -94 -194 -139
-119 -60 -210 -80 -354 -80 -144 0 -235 20 -354 80 -90 45 -117 65 -194 139
-111 105 -181 221 -224 371 -32 112 -32 296 0 408 23 80 75 194 115 250 34 49
138 155 187 191 92 67 224 123 348 145 75 14 248 3 331 -20z m2400 0 c86 -24
195 -77 261 -125 49 -36 153 -142 187 -191 40 -56 92 -170 115 -250 32 -112
32 -296 0 -408 -43 -150 -113 -266 -224 -371 -77 -74 -104 -94 -194 -139 -119
-60 -210 -80 -354 -80 -144 0 -235 20 -354 80 -90 45 -117 65 -194 139 -111
105 -181 221 -224 371 -32 112 -32 296 0 408 23 80 75 194 115 250 34 49 138
155 187 191 92 67 224 123 348 145 75 14 248 3 331 -20z"/>
<path d="M1482 3050 c-225 -113 -273 -467 -91 -675 46 -52 140 -95 209 -95
136 0 263 114 304 275 53 203 -27 415 -186 495 -84 41 -152 41 -236 0z"/>
<path d="M3402 3050 c-225 -113 -273 -467 -91 -675 46 -52 140 -95 209 -95
136 0 263 114 304 275 53 203 -27 415 -186 495 -84 41 -152 41 -236 0z"/>
<path d="M3240 1475 c-228 -153 -594 -227 -890 -180 -178 29 -179 29 -202 9
-65 -58 -92 -221 -45 -268 41 -41 225 -70 442 -70 321 0 581 70 845 226 122
72 138 92 121 155 -14 56 -64 127 -107 153 -49 31 -90 24 -164 -25z"/>
</g>
</svg>
