<?xml version="1.0" encoding="UTF-8" standalone="no"?>
<!-- Created with Inkscape (http://www.inkscape.org/) -->
<svg
   xmlns:svg="http://www.w3.org/2000/svg"
   xmlns="http://www.w3.org/2000/svg"
   version="1.0"
   width="240"
   height="110"
   id="svg3627">
  <defs
     id="defs3629">
    <clipPath
       id="clipPath4554">
      <path
         d="M 2,-3528 L 828,-3528 L 828,1075 L 2,1075 L 2,-3528 z"
         id="path4556" />
    </clipPath>
    <clipPath
       id="clipPath4542">
      <path
         d="M 2,-3528 L 828,-3528 L 828,1075 L 2,1075 L 2,-3528 z"
         id="path4544" />
    </clipPath>
    <clipPath
       id="clipPath4530">
      <path
         d="M 2,-3528 L 828,-3528 L 828,1075 L 2,1075 L 2,-3528 z"
         id="path4532" />
    </clipPath>
    <clipPath
       id="clipPath4518">
      <path
         d="M 2,-3528 L 828,-3528 L 828,1075 L 2,1075 L 2,-3528 z"
         id="path4520" />
    </clipPath>
    <clipPath
       id="clipPath4506">
      <path
         d="M 2,-3528 L 828,-3528 L 828,1075 L 2,1075 L 2,-3528 z"
         id="path4508" />
    </clipPath>
    <clipPath
       id="clipPath4494">
      <path
         d="M 2,-3528 L 828,-3528 L 828,1075 L 2,1075 L 2,-3528 z"
         id="path4496" />
    </clipPath>
    <clipPath
       id="clipPath4482">
      <path
         d="M 2,-3528 L 828,-3528 L 828,1075 L 2,1075 L 2,-3528 z"
         id="path4484" />
    </clipPath>
    <clipPath
       id="clipPath4470">
      <path
         d="M 2,-3528 L 828,-3528 L 828,1075 L 2,1075 L 2,-3528 z"
         id="path4472" />
    </clipPath>
    <clipPath
       id="clipPath4458">
      <path
         d="M 2,-3528 L 828,-3528 L 828,1075 L 2,1075 L 2,-3528 z"
         id="path4460" />
    </clipPath>
    <clipPath
       id="clipPath4446">
      <path
         d="M 2,-3528 L 828,-3528 L 828,1075 L 2,1075 L 2,-3528 z"
         id="path4448" />
    </clipPath>
    <clipPath
       id="clipPath4434">
      <path
         d="M 2,-3528 L 828,-3528 L 828,1075 L 2,1075 L 2,-3528 z"
         id="path4436" />
    </clipPath>
    <clipPath
       id="clipPath4422">
      <path
         d="M 2,-3528 L 828,-3528 L 828,1075 L 2,1075 L 2,-3528 z"
         id="path4424" />
    </clipPath>
    <clipPath
       id="clipPath4410">
      <path
         d="M 2,-3528 L 828,-3528 L 828,1075 L 2,1075 L 2,-3528 z"
         id="path4412" />
    </clipPath>
    <clipPath
       id="clipPath4398">
      <path
         d="M 2,-3528 L 828,-3528 L 828,1075 L 2,1075 L 2,-3528 z"
         id="path4400" />
    </clipPath>
    <clipPath
       id="clipPath4386">
      <path
         d="M 2,-3528 L 828,-3528 L 828,1075 L 2,1075 L 2,-3528 z"
         id="path4388" />
    </clipPath>
    <clipPath
       id="clipPath4374">
      <path
         d="M 2,-3528 L 828,-3528 L 828,1075 L 2,1075 L 2,-3528 z"
         id="path4376" />
    </clipPath>
    <clipPath
       id="clipPath4362">
      <path
         d="M 2,-3528 L 828,-3528 L 828,1075 L 2,1075 L 2,-3528 z"
         id="path4364" />
    </clipPath>
    <clipPath
       id="clipPath4350">
      <path
         d="M 2,-3528 L 828,-3528 L 828,1075 L 2,1075 L 2,-3528 z"
         id="path4352" />
    </clipPath>
    <clipPath
       id="clipPath4338">
      <path
         d="M 2,-3528 L 828,-3528 L 828,1075 L 2,1075 L 2,-3528 z"
         id="path4340" />
    </clipPath>
    <clipPath
       id="clipPath4326">
      <path
         d="M 2,-3528 L 828,-3528 L 828,1075 L 2,1075 L 2,-3528 z"
         id="path4328" />
    </clipPath>
    <clipPath
       id="clipPath4314">
      <path
         d="M 2,-3528 L 828,-3528 L 828,1075 L 2,1075 L 2,-3528 z"
         id="path4316" />
    </clipPath>
    <clipPath
       id="clipPath4302">
      <path
         d="M 2,-3528 L 828,-3528 L 828,1075 L 2,1075 L 2,-3528 z"
         id="path4304" />
    </clipPath>
    <clipPath
       id="clipPath4290">
      <path
         d="M 2,-3528 L 828,-3528 L 828,1075 L 2,1075 L 2,-3528 z"
         id="path4292" />
    </clipPath>
    <clipPath
       id="clipPath4278">
      <path
         d="M 2,-3528 L 828,-3528 L 828,1075 L 2,1075 L 2,-3528 z"
         id="path4280" />
    </clipPath>
    <clipPath
       id="clipPath4266">
      <path
         d="M 2,-3528 L 828,-3528 L 828,1075 L 2,1075 L 2,-3528 z"
         id="path4268" />
    </clipPath>
    <clipPath
       id="clipPath4254">
      <path
         d="M 2,-3528 L 828,-3528 L 828,1075 L 2,1075 L 2,-3528 z"
         id="path4256" />
    </clipPath>
    <clipPath
       id="clipPath4242">
      <path
         d="M 2,-3528 L 828,-3528 L 828,1075 L 2,1075 L 2,-3528 z"
         id="path4244" />
    </clipPath>
    <clipPath
       id="clipPath4230">
      <path
         d="M 2,-3528 L 828,-3528 L 828,1075 L 2,1075 L 2,-3528 z"
         id="path4232" />
    </clipPath>
    <clipPath
       id="clipPath4218">
      <path
         d="M 2,-3528 L 828,-3528 L 828,1075 L 2,1075 L 2,-3528 z"
         id="path4220" />
    </clipPath>
    <clipPath
       id="clipPath4206">
      <path
         d="M 2,-3528 L 828,-3528 L 828,1075 L 2,1075 L 2,-3528 z"
         id="path4208" />
    </clipPath>
    <clipPath
       id="clipPath4194">
      <path
         d="M 2,-3528 L 828,-3528 L 828,1075 L 2,1075 L 2,-3528 z"
         id="path4196" />
    </clipPath>
    <clipPath
       id="clipPath4182">
      <path
         d="M 2,-3528 L 828,-3528 L 828,1075 L 2,1075 L 2,-3528 z"
         id="path4184" />
    </clipPath>
    <clipPath
       id="clipPath4170">
      <path
         d="M 2,-3528 L 828,-3528 L 828,1075 L 2,1075 L 2,-3528 z"
         id="path4172" />
    </clipPath>
    <clipPath
       id="clipPath4158">
      <path
         d="M 2,-3528 L 828,-3528 L 828,1075 L 2,1075 L 2,-3528 z"
         id="path4160" />
    </clipPath>
    <clipPath
       id="clipPath4146">
      <path
         d="M 2,-3528 L 828,-3528 L 828,1075 L 2,1075 L 2,-3528 z"
         id="path4148" />
    </clipPath>
    <clipPath
       id="clipPath4134">
      <path
         d="M 2,-3528 L 828,-3528 L 828,1075 L 2,1075 L 2,-3528 z"
         id="path4136" />
    </clipPath>
    <clipPath
       id="clipPath4122">
      <path
         d="M 2,-3528 L 828,-3528 L 828,1075 L 2,1075 L 2,-3528 z"
         id="path4124" />
    </clipPath>
    <clipPath
       id="clipPath4110">
      <path
         d="M 2,-3528 L 828,-3528 L 828,1075 L 2,1075 L 2,-3528 z"
         id="path4112" />
    </clipPath>
    <clipPath
       id="clipPath4098">
      <path
         d="M 2,-3528 L 828,-3528 L 828,1075 L 2,1075 L 2,-3528 z"
         id="path4100" />
    </clipPath>
    <clipPath
       id="clipPath4086">
      <path
         d="M 2,-3528 L 828,-3528 L 828,1075 L 2,1075 L 2,-3528 z"
         id="path4088" />
    </clipPath>
    <clipPath
       id="clipPath4074">
      <path
         d="M 2,-3528 L 828,-3528 L 828,1075 L 2,1075 L 2,-3528 z"
         id="path4076" />
    </clipPath>
    <clipPath
       id="clipPath4062">
      <path
         d="M 2,-3528 L 828,-3528 L 828,1075 L 2,1075 L 2,-3528 z"
         id="path4064" />
    </clipPath>
    <clipPath
       id="clipPath4054">
      <path
         d="M 2,-3528 L 828,-3528 L 828,1075 L 2,1075 L 2,-3528 z"
         id="path4056" />
    </clipPath>
    <clipPath
       id="clipPath4042">
      <path
         d="M 2,-3528 L 828,-3528 L 828,1075 L 2,1075 L 2,-3528 z"
         id="path4044" />
    </clipPath>
    <clipPath
       id="clipPath4030">
      <path
         d="M 2,-3528 L 828,-3528 L 828,1075 L 2,1075 L 2,-3528 z"
         id="path4032" />
    </clipPath>
    <clipPath
       id="clipPath4018">
      <path
         d="M 2,-3528 L 828,-3528 L 828,1075 L 2,1075 L 2,-3528 z"
         id="path4020" />
    </clipPath>
    <clipPath
       id="clipPath4006">
      <path
         d="M 2,-3528 L 828,-3528 L 828,1075 L 2,1075 L 2,-3528 z"
         id="path4008" />
    </clipPath>
    <clipPath
       id="clipPath3994">
      <path
         d="M 2,-3528 L 828,-3528 L 828,1075 L 2,1075 L 2,-3528 z"
         id="path3996" />
    </clipPath>
    <clipPath
       id="clipPath3982">
      <path
         d="M 2,-3528 L 828,-3528 L 828,1075 L 2,1075 L 2,-3528 z"
         id="path3984" />
    </clipPath>
    <clipPath
       id="clipPath3970">
      <path
         d="M 2,-3528 L 828,-3528 L 828,1075 L 2,1075 L 2,-3528 z"
         id="path3972" />
    </clipPath>
    <clipPath
       id="clipPath3958">
      <path
         d="M 2,-3528 L 828,-3528 L 828,1075 L 2,1075 L 2,-3528 z"
         id="path3960" />
    </clipPath>
    <clipPath
       id="clipPath3946">
      <path
         d="M 2,-3528 L 828,-3528 L 828,1075 L 2,1075 L 2,-3528 z"
         id="path3948" />
    </clipPath>
    <clipPath
       id="clipPath3934">
      <path
         d="M 2,-3528 L 828,-3528 L 828,1075 L 2,1075 L 2,-3528 z"
         id="path3936" />
    </clipPath>
    <clipPath
       id="clipPath3922">
      <path
         d="M 2,-3528 L 828,-3528 L 828,1075 L 2,1075 L 2,-3528 z"
         id="path3924" />
    </clipPath>
    <clipPath
       id="clipPath3910">
      <path
         d="M 2,-3528 L 828,-3528 L 828,1075 L 2,1075 L 2,-3528 z"
         id="path3912" />
    </clipPath>
    <clipPath
       id="clipPath3898">
      <path
         d="M 2,-3528 L 828,-3528 L 828,1075 L 2,1075 L 2,-3528 z"
         id="path3900" />
    </clipPath>
    <clipPath
       id="clipPath3886">
      <path
         d="M 2,-3528 L 828,-3528 L 828,1075 L 2,1075 L 2,-3528 z"
         id="path3888" />
    </clipPath>
    <clipPath
       id="clipPath3874">
      <path
         d="M 2,-3528 L 828,-3528 L 828,1075 L 2,1075 L 2,-3528 z"
         id="path3876" />
    </clipPath>
    <clipPath
       id="clipPath3862">
      <path
         d="M 2,-3528 L 828,-3528 L 828,1075 L 2,1075 L 2,-3528 z"
         id="path3864" />
    </clipPath>
    <clipPath
       id="clipPath3850">
      <path
         d="M 2,-3528 L 828,-3528 L 828,1075 L 2,1075 L 2,-3528 z"
         id="path3852" />
    </clipPath>
    <clipPath
       id="clipPath3838">
      <path
         d="M 2,-3528 L 828,-3528 L 828,1075 L 2,1075 L 2,-3528 z"
         id="path3840" />
    </clipPath>
    <clipPath
       id="clipPath3826">
      <path
         d="M 2,-3528 L 828,-3528 L 828,1075 L 2,1075 L 2,-3528 z"
         id="path3828" />
    </clipPath>
    <clipPath
       id="clipPath3818">
      <path
         d="M 2,-3528 L 828,-3528 L 828,1075 L 2,1075 L 2,-3528 z"
         id="path3820" />
    </clipPath>
    <clipPath
       id="clipPath3806">
      <path
         d="M 2,-3528 L 828,-3528 L 828,1075 L 2,1075 L 2,-3528 z"
         id="path3808" />
    </clipPath>
    <clipPath
       id="clipPath3794">
      <path
         d="M 2,-3528 L 828,-3528 L 828,1075 L 2,1075 L 2,-3528 z"
         id="path3796" />
    </clipPath>
    <clipPath
       id="clipPath3782">
      <path
         d="M 2,-3528 L 828,-3528 L 828,1075 L 2,1075 L 2,-3528 z"
         id="path3784" />
    </clipPath>
    <clipPath
       id="clipPath3770">
      <path
         d="M 2,-3528 L 828,-3528 L 828,1075 L 2,1075 L 2,-3528 z"
         id="path3772" />
    </clipPath>
    <clipPath
       id="clipPath3758">
      <path
         d="M 2,-3528 L 828,-3528 L 828,1075 L 2,1075 L 2,-3528 z"
         id="path3760" />
    </clipPath>
    <clipPath
       id="clipPath3746">
      <path
         d="M 2,-3528 L 828,-3528 L 828,1075 L 2,1075 L 2,-3528 z"
         id="path3748" />
    </clipPath>
    <clipPath
       id="clipPath3734">
      <path
         d="M 2,-3528 L 828,-3528 L 828,1075 L 2,1075 L 2,-3528 z"
         id="path3736" />
    </clipPath>
    <clipPath
       id="clipPath3722">
      <path
         d="M 2,-3528 L 828,-3528 L 828,1075 L 2,1075 L 2,-3528 z"
         id="path3724" />
    </clipPath>
    <clipPath
       id="clipPath3710">
      <path
         d="M 2,-3528 L 828,-3528 L 828,1075 L 2,1075 L 2,-3528 z"
         id="path3712" />
    </clipPath>
    <clipPath
       id="clipPath3702">
      <path
         d="M 2,-3528 L 828,-3528 L 828,1075 L 2,1075 L 2,-3528 z"
         id="path3704" />
    </clipPath>
    <clipPath
       id="clipPath3692">
      <path
         d="M 2,11.8327 L 818,11.8327 L 818,1074.8327 L 2,1074.8327 L 2,11.8327 z"
         id="path3694" />
    </clipPath>
    <clipPath
       id="clipPath5321">
      <path
         d="M 0,792.03 L 612,792.03 L 612,0.03 L 0,0.03 L 0,792.03 z"
         id="path5323" />
    </clipPath>
    <clipPath
       id="clipPath5313">
      <path
         d="M 576,36 L 36,36 L 36,756 L 576,756 L 576,36 z"
         id="path5315" />
    </clipPath>
  </defs>
  <g
     id="layer1">
    <path
       d="M 216.90856,10.427885 L 206.03587,16.266923 L 206.06942,32.810865 L 196.03567,32.810865 C 203.76182,36.791044 210.43192,45.263712 210.43192,57.811346 C 210.43192,64.193772 208.81072,69.314977 206.20365,73.348558 L 206.23721,82.610481 L 216.90856,82.610481 L 216.90856,43.683558 L 227.78125,43.683558 L 227.78125,32.810865 L 216.90856,32.810865 L 216.90856,10.427885 z"
       id="path5422"
       style="fill:#02518b;fill-opacity:1;fill-rule:evenodd;stroke:none;stroke-width:1px;stroke-linecap:butt;stroke-linejoin:miter;stroke-opacity:1" />
    <path
       d="M 181.80721,31.200096 C 171.8566,31.528188 166.50491,38.884818 166.5049,38.884808 L 166.5049,33.045769 L 155.83356,33.045769 L 155.83356,40.193558 C 159.20855,44.644779 161.47126,50.55468 161.47125,57.811346 C 161.47125,65.257073 159.23262,70.981457 155.83356,75.261346 L 155.83356,105.22837 L 166.70625,99.389327 L 166.70625,77.207692 C 166.70625,77.207692 172.58984,85.192544 183.45154,84.456154 C 195.34616,83.649738 206.63989,74.780145 206.6399,57.442212 C 206.6399,40.104278 193.32961,31.838476 183.85423,31.233654 C 183.15005,31.188703 182.47059,31.178222 181.80721,31.200096 z M 181.43808,42.072788 C 189.56392,42.072799 196.13635,49.174101 196.13635,57.912019 C 196.13635,66.649938 189.56394,73.717692 181.43808,73.717692 C 173.31222,73.717703 166.70625,66.649938 166.70625,57.912019 C 166.70625,49.17409 173.31222,42.072788 181.43808,42.072788 z"
       id="path5418"
       style="fill:#02518b;fill-opacity:1;fill-rule:evenodd;stroke:none;stroke-width:1px;stroke-linecap:butt;stroke-linejoin:miter;stroke-opacity:1" />
    <path
       d="M 34.254038,31.200096 C 23.36744,31.200096 9.65625,40.473423 9.65625,57.811346 C 9.65625,75.14928 22.561551,84.422585 33.851346,84.422596 C 45.141163,84.422596 51.200684,76.737895 51.200673,76.737885 L 51.200673,82.610481 L 61.872019,82.610481 L 61.872019,33.012212 L 50.999327,33.012212 L 50.999327,40.059327 C 50.999327,40.059327 45.140659,31.200096 34.254038,31.200096 z M 35.663462,42.072788 C 43.78932,42.072799 50.395288,49.174101 50.395288,57.912019 C 50.395299,66.649938 43.78932,73.717692 35.663462,73.717692 C 27.537614,73.717703 20.931635,66.649938 20.931635,57.912019 C 20.931645,49.17409 27.537603,42.072788 35.663462,42.072788 z"
       id="path5400"
       style="fill:#02518b;fill-opacity:1;fill-rule:evenodd;stroke:none;stroke-width:1px;stroke-linecap:butt;stroke-linejoin:miter;stroke-opacity:1" />
    <text
       x="306.66531"
       y="288.49686"
       id="text5331"
       style="font-size:15px">
      <tspan
         x="306.66531 330.62241 352.44299 373.31787 395.13846 408.93829 421.27411 442.84952 463.72443 481.97244 504.14325 526.31409 547.57428 557.17114 578.43127 600.25189 620.98663 633.73578 646.07153 660.81714 682.98792 701.2359 713.98505 738.65668 754.55798 780.75671 804.71381 828.6709 855.67517 879.63226 907.19696 923.09833 935.43414 959.39124 986.39545 1008.5313 1029.6514 1045.5527"
         y="288.49686"
         id="tspan5333"
         style="font-size:35.02500153px;font-variant:normal;font-weight:normal;font-stretch:normal;writing-mode:lr-tb;fill:#ffffff;fill-opacity:1;fill-rule:nonzero;stroke:none;font-family:Verdana;-inkscape-font-specification:Verdana">Adept Technology, Inc. (NASDAQ: ADEP)</tspan>
    </text>
    <text
       x="576.66528"
       y="391.69687"
       id="text5335"
       style="font-size:15px">
      <tspan
         x="576.66528 597.54529 615.78534 634.50531 652.41528 665.25531 677.10529 687.76733 708.37732 727.39734 743.05731 762.07733 779.9873"
         y="391.69687"
         id="tspan5337"
         style="font-size:30px;font-variant:normal;font-weight:normal;font-stretch:normal;writing-mode:lr-tb;fill:#ffffff;fill-opacity:1;fill-rule:nonzero;stroke:none;font-family:Verdana;-inkscape-font-specification:Verdana">Robert Bucher</tspan>
      <tspan
         x="576.66528 597.63232 616.64929 624.8963 642.80328 653.39032 663.97729 682.96429 700.75128 718.65833 734.31531 753.33234 765.17932 773.42633 791.21332 809.1203 819.70728 843.3443 853.93134 864.51831 872.76532 888.4223 906.32928"
         y="434.80685"
         id="tspan5339"
         style="font-size:30px;font-variant:normal;font-weight:normal;font-stretch:normal;writing-mode:lr-tb;fill:#ffffff;fill-opacity:1;fill-rule:nonzero;stroke:none;font-family:Verdana;-inkscape-font-specification:Verdana">Chief Executive Officer</tspan>
    </text>
    <path
       d="M 110.06087,10.427885 L 99.188173,16.266923 L 99.188173,38.448558 C 99.188173,38.448558 93.304559,30.463706 82.442885,31.200096 C 75.66436,31.659659 69.098993,34.723471 64.690865,40.495577 L 64.690865,74.925769 C 69.430683,80.981832 76.414194,84.063481 82.040192,84.422596 C 93.307083,85.141762 99.38953,76.737895 99.389519,76.737885 L 99.389519,82.610481 L 110.06087,82.610481 L 110.06087,10.427885 z M 84.657692,42.072788 C 92.783561,42.072799 99.389519,49.174101 99.389519,57.912019 C 99.38953,66.649938 92.783551,73.717692 84.657692,73.717692 C 76.531856,73.717703 69.925865,66.649938 69.925865,57.912019 C 69.925876,49.17409 76.531834,42.072788 84.657692,42.072788 z"
       id="path5410"
       style="fill:#02518b;fill-opacity:1;fill-rule:evenodd;stroke:none;stroke-width:1px;stroke-linecap:butt;stroke-linejoin:miter;stroke-opacity:1" />
    <path
       d="M 132.54452,31.200096 C 119.15266,31.755876 113.08106,40.663365 113.08106,40.663365 L 113.48375,75.328462 C 113.48374,75.328472 121.55492,85.632477 134.25596,84.22125 C 143.25414,83.221456 153.38326,77.980088 157.04163,67.006154 L 144.86019,67.006154 C 142.20103,71.061083 137.81797,73.717692 132.84654,73.717692 C 126.39953,73.717703 121.04203,69.53337 119.04857,63.331093 C 128.26434,63.398116 138.28499,63.241669 146.63875,63.28125 L 157.98125,63.28125 C 158.28559,61.575112 158.45106,59.751647 158.45106,57.811346 C 158.45105,40.473423 144.73987,31.200096 133.85327,31.200096 C 133.40596,31.200096 132.97652,31.182163 132.54452,31.200096 z M 132.84654,42.072788 C 139.494,42.072799 145.0867,46.835157 146.90721,53.348173 L 118.75231,53.348173 C 120.581,46.835157 126.19908,42.072788 132.84654,42.072788 z"
       id="path5412"
       style="fill:#02518b;fill-opacity:1;fill-rule:evenodd;stroke:none;stroke-width:1px;stroke-linecap:butt;stroke-linejoin:miter;stroke-opacity:1" />
  </g>
</svg>
